<svg width="219" height="36" viewBox="0 0 219 36" fill="none" xmlns="http://www.w3.org/2000/svg">
<path d="M24.5963 0.715088H31.8672V15.4967H34.526L40.5264 0.715088H46.9337L39.6627 17.7441L46.9337 35.0624H40.6439L34.2367 19.2452H31.9848L31.813 35.0624L24.5963 34.773V0.715088Z" fill="black"/>
<path d="M48.742 0.715088H57.2113L62.981 16.4192L68.6016 0.715088H72.6033L60.675 35.0624H56.5149L59.2868 27.7326L48.742 0.715088Z" fill="black"/>
<path d="M80.9145 0.715088H75.9903V35.0624H82.913V29.1162C84.3012 29.1162 93.9236 26.037 93.9236 14.1854C93.9236 2.33388 80.9145 0.715088 80.9145 0.715088ZM82.9945 25.1145V5.72067C83.7722 6.19998 87.2085 10.4007 87.2629 15.4198C87.3173 20.4977 82.9945 25.1145 82.9945 25.1145Z" fill="black"/>
<path d="M185.937 21.6507C185.937 12.3765 176.314 8.91284 174.927 8.91284V0.773682H168.003V35.121H172.928C172.928 35.121 185.937 33.5022 185.937 21.6507ZM179.231 21.5557C179.241 26.7331 175.786 29.6361 175.008 30.1154V13.5296C175.008 13.5296 179.222 16.4732 179.231 21.5512V21.5557Z" fill="black"/>
<path d="M107.431 0.715088H104.831L94.2682 35.0624H98.0796L100.386 26.982H107.72L110.257 35.0624H117.876L107.431 0.715088ZM101.484 22.7677L104.08 15.0897L106.793 22.7677H101.484Z" fill="black"/>
<path d="M121.226 0.715088H128.326V15.438H134.389V0.715088H141.371V35.0624H134.212V19.5663H128.298V35.0624H121.226V0.715088Z" fill="black"/>
<path d="M145.815 0.715088V4.75754H151.242V35.0624H158.517V4.75754H163.903V0.715088H145.815Z" fill="black"/>
<path d="M194.827 0.715088H187.669V35.0624H194.827V0.715088Z" fill="black"/>
<path d="M5.51573 7.91345L0.262451 13.1667L5.51573 18.42L10.769 13.1667L5.51573 7.91345Z" fill="black"/>
<path d="M213.747 7.91345L208.494 13.1667L213.747 18.42L219 13.1667L213.747 7.91345Z" fill="black"/>
<path d="M213.746 27.7014C215.799 27.7014 217.463 26.0373 217.463 23.9845C217.463 21.9318 215.799 20.2677 213.746 20.2677C211.694 20.2677 210.029 21.9318 210.029 23.9845C210.029 26.0373 211.694 27.7014 213.746 27.7014Z" fill="black"/>
<path d="M5.51883 27.7014C7.57161 27.7014 9.23572 26.0373 9.23572 23.9845C9.23572 21.9318 7.57161 20.2677 5.51883 20.2677C3.46605 20.2677 1.80194 21.9318 1.80194 23.9845C1.80194 26.0373 3.46605 27.7014 5.51883 27.7014Z" fill="black"/>
</svg>
