<svg width="85" height="85" viewBox="0 0 85 85" fill="none" xmlns="http://www.w3.org/2000/svg">
<g opacity="0.7">
<path d="M34.8554 60.0638C35.2042 55.555 36.5992 51.3699 38.2931 47.2596C39.987 43.1743 42.0048 39.2632 44.9692 35.7757C44.7201 35.7757 44.5457 35.7508 44.3713 35.7508C39.713 35.7508 35.0547 35.7508 30.3963 35.7508C29.7736 35.7508 29.7736 35.7508 29.7736 35.128C29.7736 32.8611 29.7736 30.5693 29.7736 28.3024C29.7736 27.9288 29.8732 27.8042 30.2718 27.8042C38.6668 27.8042 47.0617 27.8042 55.4567 27.8042C55.8303 27.8042 55.93 27.9039 55.93 28.2775C55.93 30.3451 55.93 32.3879 55.93 34.4555C55.93 34.7045 55.7805 34.9785 55.6311 35.1778C54.5599 36.548 53.414 37.8433 52.3677 39.2383C50.0261 42.3024 48.656 45.8397 47.6347 49.5016C46.713 52.7899 46.2646 56.1529 46.0403 59.5656C46.0155 60.014 45.866 60.1137 45.4425 60.1137C42.1045 60.1137 38.7415 60.1137 35.4035 60.1137C35.2539 60.1137 35.1045 60.1137 34.9052 60.1137L34.8554 60.0638Z" fill="black"/>
<path d="M42.7756 0.551758C19.4591 0.551758 0.551697 19.4591 0.551697 42.7758C0.551697 66.0923 19.4591 84.9996 42.7756 84.9996C66.0922 84.9996 85 66.0923 85 42.7758C85 19.4591 66.0922 0.551758 42.7756 0.551758ZM42.7756 75.135C24.8896 75.135 10.4164 60.6368 10.4164 42.7758C10.4164 24.9146 24.8896 10.4164 42.7756 10.4164C60.6617 10.4164 75.1349 24.8897 75.1349 42.7758C75.1349 60.6618 60.6367 75.135 42.7756 75.135Z" fill="black"/>
</g>
</svg>
