<svg width="200" height="62" viewBox="0 0 200 62" fill="none" xmlns="http://www.w3.org/2000/svg">
<g opacity="0.7">
<path fill-rule="evenodd" clip-rule="evenodd" d="M33.9098 0.206163C31.6392 0.383693 29.7812 0.675126 28.0021 1.13261C22.6845 2.5002 16.5108 5.87374 11.323 10.2468C9.94433 11.4089 8.98021 12.3066 7.16909 14.1141C3.73919 17.5371 2.01409 19.7129 0.977535 21.9229C0.0700218 23.8579 0.0698539 25.35 0.976862 26.9228C1.42674 27.7028 2.95769 29.2162 4.03521 29.9457C4.53793 30.2862 5.12468 30.6541 5.33911 30.7634C5.87681 31.0374 6.77448 31.342 6.86898 31.2826C6.91187 31.2557 6.84322 31.0333 6.71647 30.7885C6.50437 30.3789 6.48637 30.2682 6.49106 29.4014C6.4957 28.558 6.5244 28.3829 6.76514 27.7306C7.25182 26.4115 8.1169 25.1007 9.61864 23.4066C10.9975 21.8513 15.6703 17.4791 18.221 15.358C25.1173 9.62288 32.0559 6.34183 38.6113 5.71587C39.9351 5.58948 42.6748 5.6568 44.0465 5.84938C47.0458 6.2705 49.8463 7.27319 51.2938 8.44417C53.6169 10.3235 55.2014 13.7063 55.7956 18.0541C55.9991 19.5401 55.997 23.3757 55.7918 25.2906C55.2074 30.752 54.3397 34.187 52.7062 37.5045C51.599 39.753 50.4884 41.3203 48.7668 43.0642C46.6411 45.2172 44.5469 46.6263 41.8594 47.7118C40.8703 48.1113 39.3529 48.5879 39.2862 48.5199C39.2365 48.4694 39.1207 43.7637 38.9158 33.4693C38.6678 20.9997 38.6044 19.7173 38.1067 17.0693C37.8343 15.6191 37.6246 15.1875 36.7751 14.3271C35.3981 12.9326 32.3409 11.2029 31.253 11.2029C30.9019 11.2029 30.7822 11.4538 30.5914 12.5897C30.1889 14.9865 30.1841 15.5602 30.4543 28.9304C30.753 43.7133 30.7596 43.8862 31.0918 45.5174C31.5845 47.9358 32.5813 49.7422 34.3966 51.5052C35.4664 52.5444 36.4452 53.2615 37.6492 53.8885C40.5822 55.416 43.3444 55.6459 46.8869 54.6572C52.716 53.0309 57.8538 48.6959 60.6137 43.0748C61.9512 40.351 63.0496 36.3523 63.5581 32.356C65.0849 20.3512 61.5774 11.5749 52.8794 5.63709C48.6328 2.73802 43.9498 0.976582 38.873 0.368792C37.8046 0.240847 34.7474 0.140734 33.9098 0.206163ZM73.4171 6.528C72.4114 9.22264 71.7725 12.6967 71.9776 14.3505C72.1201 15.4951 72.2347 15.7278 73.052 16.5275C74.8435 18.2811 77.0904 19.7593 77.9734 19.7648C78.2598 19.7667 78.3056 19.7358 78.4153 19.4683C78.6669 18.8562 78.7061 18.264 78.7411 14.5429C78.7607 12.4469 78.8158 10.3123 78.8633 9.79931C78.9653 8.6974 78.9347 8.60465 78.2669 7.98826C77.3856 7.17504 74.8096 5.59873 74.0697 5.42C73.8563 5.36844 73.8395 5.39645 73.4171 6.528ZM94.9358 8.92511C94.679 9.51642 94.5319 10.33 94.4322 11.7168C93.9851 17.9482 93.6186 21.0114 92.8249 25.1622C92.4468 27.1405 91.8816 29.6924 91.4412 31.4139C90.6974 34.3206 89.2289 38.9453 89.1158 38.7393C89.0735 38.661 89.0518 35.3404 89.0668 30.9618C89.0892 24.216 89.0768 23.1989 88.9521 22.2792C88.869 21.6558 88.7552 21.1477 88.6696 21.014C88.3521 20.5209 86.3708 19.1678 84.7328 18.3252C84.0172 17.9569 83.8053 17.8807 83.7505 17.9715C83.6507 18.1354 83.3532 19.8271 83.2502 20.8152C83.0458 22.7689 82.959 27.5115 82.9672 36.2097C82.9721 41.1319 83.0086 46.1477 83.049 47.3559L83.1213 49.5529L83.3831 49.9252C83.7388 50.4302 84.54 51.1069 85.8946 52.045C87.3299 53.0394 88.1219 53.4289 88.8233 53.4862C90.448 53.619 92.0553 52.5913 93.341 50.5973C93.9477 49.6552 95.3472 46.8492 96.1417 44.9828C97.6526 41.4308 99.2915 36.2095 100.196 32.0621C101.405 26.5311 102.116 20.7698 102.118 16.5125C102.119 13.7901 101.808 12.7047 100.707 11.5838C99.9954 10.8597 98.374 9.74579 97.065 9.08185C96.3137 8.70106 96.0137 8.5941 95.6131 8.5646L95.1079 8.52745L94.9358 8.92511ZM143.288 20.1976C142.433 20.4164 141.57 21.0622 140.868 22.0102C140.29 22.7918 139.334 24.7224 138.002 27.7995L137.212 29.6235L137.074 28.7416C136.893 27.5755 136.711 26.8979 136.524 26.6849C135.855 25.9246 132.632 23.7723 132.042 23.6916C131.863 23.6673 131.815 23.7203 131.676 24.0917C131.344 24.982 131.202 26.0091 131.117 28.1168C130.957 32.1189 130.856 35.7255 130.733 41.8115L130.609 47.97L130.817 48.3323C131.532 49.5754 135.49 52.1387 136.694 52.1387C136.975 52.1387 136.995 52.1181 137.133 51.6891C138.38 47.7927 141.208 39.8699 142.208 37.4722C142.334 37.1698 142.342 37.5321 142.318 42.7114C142.3 46.554 142.321 48.3834 142.384 48.6241C142.575 49.3455 143.589 50.3425 145.372 51.5616C146.984 52.6645 148.262 53.1781 149.053 53.041C149.469 52.9688 154.464 52.5133 157.485 52.272C162.185 51.8967 166.775 51.6216 172.67 51.3615C173.803 51.3115 180.352 51.2395 187.223 51.2017C194.094 51.1637 199.781 51.1045 199.863 51.07C200.075 50.9791 200.045 50.773 199.747 50.2929C198.895 48.9198 196.024 46.7662 194.68 46.4923C193.61 46.2742 188.887 45.9311 185.162 45.8008C176.706 45.5051 160.585 46.0905 150.082 47.0746C149.666 47.1137 149.307 47.129 149.284 47.1087C149.26 47.0885 149.229 45.4083 149.215 43.375C149.174 37.9318 149.375 30.7502 149.712 25.5801C149.82 23.9136 149.816 23.8982 149.043 23.1406C148.397 22.5059 146.218 20.9576 145.36 20.5235C144.618 20.1476 143.916 20.0371 143.288 20.1976ZM114.321 21.9738C112.336 23.1886 110.669 24.9458 108.862 27.7282C105.834 32.3898 104.087 36.659 102.937 42.2006C102.267 45.4367 102.143 47.1522 102.501 48.2911C102.982 49.8259 104.369 51.2106 106.986 52.77C108.112 53.4413 108.815 53.7049 109.494 53.7104C110.331 53.7173 110.708 53.4659 112.428 51.7534C114.767 49.4242 116.648 47.1511 118.231 44.7404C118.635 44.1229 119.003 43.6176 119.045 43.6176C119.089 43.6176 119.318 44.1379 119.554 44.7737C121.105 48.9503 122.941 52.5617 124.789 55.0695C126.48 57.3637 128.572 59.3053 130.42 60.2967C131.155 60.6914 132.209 61.0456 132.646 61.0456C132.976 61.0456 133.245 60.7499 133.18 60.4598C133.059 59.9157 132.128 58.2072 130.98 56.4249C129.533 54.1764 129.01 53.2516 128.004 51.1539C125.736 46.4249 124.194 41.7873 123.124 36.4717C122.965 35.6833 122.793 35.0569 122.698 34.9201C122.238 34.2633 120.392 32.7783 118.975 31.925C118.036 31.3602 117.455 31.1324 117.055 31.1728C116.799 31.1985 116.769 31.2424 116.419 32.0991C115.477 34.4042 113.809 37.5406 112.208 40.0207C111.371 41.3153 109.957 43.3178 109.879 43.3178C109.752 43.3178 110.827 40.3249 111.543 38.68C113.087 35.1394 114.508 32.6886 116.839 29.5424C118.928 26.7239 119.918 25.1168 119.8 24.7375C119.585 24.0458 115.996 21.5653 115.211 21.5653C115.088 21.5653 114.688 21.7492 114.321 21.9738ZM71.5188 22.668C71.4227 22.8262 70.7756 25.6304 70.4193 27.4316C69.3323 32.9271 68.7026 40.6449 68.94 45.5515C69.0595 48.0185 69.3137 50.1609 69.5461 50.6566C69.7715 51.1382 70.6048 51.9157 71.6388 52.6097C72.6499 53.2884 74.6121 54.277 75.0732 54.34C75.3771 54.3815 75.4065 54.3669 75.4709 54.1395C75.5092 54.0047 75.5468 50.5801 75.5555 46.5293C75.5719 38.3559 75.6946 34.9477 76.225 27.9455C76.3964 25.6837 76.409 25.8234 75.9948 25.366C75.3678 24.6737 72.0955 22.593 71.6333 22.593C71.5956 22.593 71.5439 22.6268 71.5188 22.668Z" fill="black"/>
</g>
</svg>
