<svg width="146" height="53" viewBox="0 0 146 53" fill="none" xmlns="http://www.w3.org/2000/svg">
<g opacity="0.7">
<path d="M30.867 2.40841C30.867 2.40841 30.0071 2.36702 22.41 2.40841C14.8082 2.4452 12.9825 9.23757 12.9825 9.23757L0.0646973 51.4309H6.13042C13.2171 51.4309 14.3897 41.8563 14.3897 41.8563H29.1471C31.6074 53.1463 38.7768 51.1825 44.8011 51.4079L30.867 2.40841ZM16.9696 32.1116L22.5249 13.3258L26.8293 32.1116H16.9696Z" fill="black"/>
<path d="M57.0476 0.88147V29.159L67.6154 17.2024C67.6154 17.2024 71.9199 12.7232 80.9242 15.0226L66.9532 30.902C66.9532 30.902 70.6322 32.507 73.373 37.6345C76.1139 42.7621 78.5007 46.5975 81.9819 50.2764C81.9819 50.2764 71.2576 54.2681 66.6405 48.7129C62.0234 43.153 57.0522 35.6387 57.0522 35.6387V45.5398C57.0522 45.5398 55.1391 51.4353 49.4964 51.4353H45.2702L45.1139 8.63493C45.1139 8.63493 45.307 0.88147 57.0476 0.88147Z" fill="black"/>
<path d="M110.82 24.1283C110.82 24.1283 112.15 10.2723 95.1659 10.2723C78.1831 10.2723 80.2157 24.1283 80.2157 24.1283C80.2157 24.1283 80.3214 33.0498 95.4924 35.5562C110.664 38.0625 93.1288 49.3339 88.7463 38.6879C88.7463 38.6879 87.8867 35.7125 78.5693 36.8898C78.5693 36.8898 78.2014 52.0748 94.7065 52.0748C111.211 52.0748 111.289 43.2314 111.837 39.1569C112.384 35.0825 109.408 27.7843 99.7836 26.2713C90.1539 24.7537 88.9808 21.4656 90.7053 20.2929C92.4298 19.1203 97.2038 18.7294 99.4702 20.8402C101.743 22.9557 103.227 25.3792 110.82 24.1283Z" fill="black"/>
<path d="M113.64 11.0581V39.5518C113.64 39.5518 112.624 52.0742 130.075 52.0742C147.528 52.0742 145.964 39.3173 145.964 39.3173V11.0581C145.964 11.0581 137.121 10.0418 136.178 17.5561V39.0828C135.737 45.245 123.734 43.8977 123.734 39.0828L123.812 17.1652C123.812 17.1652 123.463 10.1798 113.635 11.0581H113.64Z" fill="black"/>
</g>
</svg>
