<svg width="196" height="46" viewBox="0 0 196 46" fill="none" xmlns="http://www.w3.org/2000/svg">
<g opacity="0.7">
<path d="M97.8147 36.7946C96.2399 39.8111 94.6843 42.6983 90.8537 42.3877C87.3493 42.1031 86.0778 39.4119 85.368 36.7612C82.7433 38.3139 80.2295 40.0551 77.4902 41.3231C75.8192 42.0957 73.8229 42.3803 71.9524 42.4617C66.6291 42.6909 62.9803 39.386 62.1153 33.7558C61.1356 27.3788 62.7142 21.427 65.3574 15.7118C67.5791 10.9097 70.5957 6.68427 74.9875 3.57897C78.8654 0.835963 83.1388 0.096607 87.5969 1.56793C92.166 3.07622 93.4156 7.01698 90.913 11.1426C88.3145 15.4272 82.9244 18.0038 77.9856 17.2312C77.1723 17.1018 76.2037 16.7765 75.6936 16.1998C75.1243 15.5528 74.6289 14.4327 74.7952 13.6749C74.9394 13.0354 76.0262 12.3329 76.7951 12.1814C77.8377 11.9743 78.9837 12.2332 80.0816 12.3477C83.808 12.7359 87.0574 11.8191 89.4193 8.76186C90.9392 6.79517 90.3288 4.98006 87.9562 4.19633C84.9465 3.2019 82.2479 4.05586 79.7969 5.83401C75.9043 8.66204 73.1724 12.503 71.4755 16.8836C69.8933 20.9686 68.6992 25.2643 67.8933 29.571C67.4756 31.8076 67.9525 34.3583 68.5921 36.6097C69.3388 39.2418 71.4681 40.3731 74.1927 40.0625C78.4883 39.5708 81.9707 37.5117 84.6398 34.1329C85.0612 33.6005 85.2349 32.7983 85.3347 32.0923C85.8116 28.7799 86.9724 25.7855 89.3862 23.4085C92.8758 19.9705 96.9017 20.1295 100.036 23.793C100.518 22.0296 101.649 21.0463 103.475 21.0684C105.375 21.0906 106.325 22.4732 105.756 24.292C104.747 27.5082 103.671 30.7023 102.728 33.9369C102.44 34.9202 102.418 35.9998 102.41 37.0385C102.403 39.0237 103.301 40.3249 104.592 40.3804C105.977 40.4396 108.443 38.2289 108.443 38.2289C108.584 35.3971 110.835 28.0812 112.35 23.5712C112.813 22.0592 113.87 21.0722 115.559 20.9428C117.771 20.7727 118.643 21.9039 117.888 23.9852C117.745 24.3808 117.438 25.3789 117.445 25.3604C119.112 23.8485 121.356 22.403 123.53 21.7967C127.955 20.562 130.628 23.0388 129.748 27.523C129.09 30.8759 127.921 34.1292 126.997 37.4304C126.85 37.9553 126.72 38.5136 126.735 39.0532C126.769 40.129 127.434 40.7833 128.424 40.3176C129.793 39.678 132.731 37.6744 132.731 37.6744C132.158 34.1661 134.827 21.6969 134.872 21.1424C132.982 20.732 131.382 21.1719 131.285 19.8522C131.189 18.4992 134.59 19.2238 136.099 18.8763C136.099 18.8763 138.657 11.4014 139.463 9.41249C140.154 7.70828 141.855 6.88759 143.282 7.49016C144.502 8.00402 144.664 9.49385 143.784 11.3755C142.672 13.7562 141.795 16.1739 140.59 18.8393C141.78 18.9354 144.927 18.5657 145.034 19.9446C145.123 21.1275 142.612 21.0758 140.757 21.2644C140.757 21.2644 137.459 31.3455 136.919 35.5155C136.706 37.1716 137.038 39.5893 138.975 40.4987C140.125 41.0385 143.337 39.4155 144.314 38.2215C143.497 34.5099 143.688 28.4176 145.289 24.2476C145.615 23.3087 146.224 22.3439 146.971 21.708C148.01 20.8244 149.326 20.6433 150.542 21.5564C151.725 22.4436 151.681 23.5786 151.234 24.8613C150.268 27.6376 149.211 30.4028 148.523 33.253C148.132 34.8722 148.176 36.6836 148.424 38.3509C148.716 40.3361 150.073 40.8425 151.803 39.8703C153.056 39.1679 154.284 38.0662 154.284 38.0662C154.882 31.9296 156.676 28.0775 158.12 23.8151C158.645 22.2662 159.551 20.9982 161.329 20.8281C163.64 20.61 164.564 21.7856 163.736 23.9223C163.629 24.1996 163.399 24.9353 163.089 25.671C163.995 24.9279 167.281 21.6784 170.449 21.4566C174.024 21.2052 176.649 23.1572 175.799 27.0868C175.018 30.4878 173.902 33.8519 172.967 37.216C172.804 37.8 172.727 38.5616 172.715 39.1679C172.694 40.3028 173.122 40.5726 174.191 40.3656C176.598 39.8998 178.412 37.5302 178.412 37.5302C177.846 29.9333 180.952 22.3734 186.745 20.9021C187.606 20.6433 188.56 20.5139 189.455 20.5656C193.107 20.7726 194.652 23.2384 193.148 26.5396C191.04 31.1606 187.277 34.1624 182.959 36.5691C183.019 39.6817 186.091 41.5338 188.981 40.9904C191.872 40.4469 194.8 36.8685 195.809 37.3416C196.637 37.7298 194.66 39.8185 192.086 41.3564C188.349 43.5892 182.892 44.3433 178.975 39.1975C178.272 39.7409 177.181 40.4543 176.494 41.0236C174.623 42.5763 172.423 42.7426 170.209 42.2991C168.508 41.9589 167.303 40.7722 167.385 38.9238C167.455 37.3527 167.765 35.7668 168.173 34.24C168.693 32.2882 169.5 30.4139 170.028 28.462C170.453 26.8872 171.562 24.8207 169.721 23.8743C168.08 23.0278 166.479 24.7541 165.492 25.8557C161.877 29.8926 159.385 34.5913 157.663 39.7113C157.603 39.885 157.311 41.8037 156.539 42.1216C155.311 42.6243 154.335 41.8702 154.054 40.4543C150.435 43.1456 147.792 42.7205 144.834 39.4155C140.871 43.1456 136.173 43.3526 133.171 39.0606C132.617 39.5228 131.903 40.0736 131.378 40.5467C129.623 42.1327 127.563 42.6724 125.237 42.4173C122.909 42.1623 121.445 40.7538 121.607 38.3989C121.722 36.7132 122.262 35.046 122.717 33.4046C123.275 31.3972 124.199 29.5118 124.698 27.4935C125.005 26.2514 125.06 24.048 123.629 23.5933C122.768 23.3198 121.157 24.4916 120.488 25.2052C117.589 28.2809 115.607 30.7688 113.656 35.412C113.131 36.6614 112.58 38.9054 111.819 40.5061C111.445 41.2861 110.61 42.1068 109.892 42.2768C109.264 42.4247 108.347 41.5449 108.214 40.4581C103.057 43.3453 100.011 43.0606 97.8077 36.7908L97.8147 36.7946ZM90.2032 35.6966C90.2773 37.5745 90.0367 39.3601 91.9297 39.9109C93.719 40.4322 94.5988 38.8685 95.3304 37.6744C97.4118 34.2882 98.7721 30.5839 98.6509 26.5766C98.6169 25.5305 97.6412 24.1774 96.7064 23.6377C96.2181 23.3531 94.5579 24.292 93.9928 25.0794C91.6673 28.3326 90.4884 32.0515 90.2032 35.6966ZM182.667 34.6799C187.189 33.497 193.447 23.719 190.242 22.0702C187.037 20.4215 183.252 30.1255 182.667 34.6799Z" fill="black"/>
<path d="M16.1936 31.6194C18.7296 27.564 20.6075 22.7138 21.3764 18.3516C18.615 17.9043 16.2268 17.3941 14.0679 16.2148C8.95159 13.4238 9.30648 6.03391 11.3397 2.80662C11.7353 2.17817 12.4931 1.49057 13.1659 1.39445C14.0827 1.26507 15.2879 1.40554 15.9607 1.94528C16.4597 2.34453 16.5855 3.6273 16.3932 4.39254C15.9903 5.98585 15.1326 7.86381 14.6963 9.45344C13.6834 14.3147 16.5632 16.2962 21.7092 16.81C22.0715 14.0337 22.2304 11.6974 22.6629 9.16874C23.2803 5.55703 25.136 2.51458 28.5593 1.03587C30.818 0.0599152 33.2727 -0.154498 35.3613 1.54602C37.9195 3.6273 37.9306 6.7326 37.1728 9.53105C36.1488 14.1816 31.4058 17.4348 26.8773 18.5439C26.7368 21.5641 23.1324 29.6416 20.1196 33.952C25.6499 39.8705 30.9659 42.6616 34.5777 39.9482C32.2745 34.7136 32.9399 29.6859 36.0859 25.1019C37.1653 23.5308 38.7957 22.1407 40.5479 21.3016C43.3316 19.9671 46.8102 20.9541 47.9711 23.8376C48.1892 23.3755 48.3407 22.943 48.5773 22.5659C49.4054 21.2535 51.2575 20.7064 52.629 21.3312C54.3739 22.1223 54.1742 23.4309 53.6456 24.8949C52.8101 27.2017 51.9932 29.5158 51.2501 31.8522C50.8989 32.9612 50.6439 34.1184 50.5145 35.2717C50.3185 37.0388 49.9673 39.0831 51.8601 40.0849C53.6715 41.0424 54.8766 39.3751 56.1521 38.3881C56.4441 38.1627 56.7065 37.8817 56.9801 37.6709C57.3017 37.4232 57.945 37.1867 58.1964 37.4676C58.4145 37.719 58.0929 38.3438 57.9154 38.5656C57.006 39.7042 55.006 41.3196 53.2723 42.0812C49.6642 43.6672 46.6181 40.78 46.2077 36.3105C45.2946 38.5138 44.034 40.2587 42.3704 41.5008C40.4 42.9759 37.7014 42.6431 35.8309 41.1385C30.1932 45.2678 26.4559 44.5913 17.6908 37.926C16.5078 39.2347 15.4135 40.6395 14.1197 41.8335C11.9423 43.8446 9.4174 45.1754 6.31947 45.0054C1.22161 44.7244 -1.25893 39.852 1.51366 35.5638C4.57459 30.8282 11.1364 28.4031 16.1936 31.6194ZM46.8066 27.0759C46.8472 25.4605 46.3814 24.052 44.7622 23.5159C43.1726 22.9873 42.4296 24.3699 41.7641 25.4087C39.5424 28.88 38.23 32.6729 38.2708 36.8392C38.2855 38.1293 38.4444 39.7818 40.0045 39.8668C40.9693 39.9185 42.3076 39.061 42.9435 38.2144C45.3944 34.9464 46.3852 31.0943 46.8029 27.0834L46.8066 27.0759ZM14.3932 34.2293C13.1659 32.9982 11.8018 32.9612 10.5929 33.0019C7.49134 33.1017 3.33986 37.6266 3.21787 40.7208C3.15872 42.1588 4.15315 43.1348 5.56163 42.7281C6.64109 42.4176 7.78339 41.8631 8.5745 41.0867C10.5744 39.1237 14.4228 34.5324 14.3932 34.2293ZM27.2765 16.6954C28.5741 16.4107 30.1637 15.3239 30.9289 14.4108C33.4908 11.3461 33.5277 8.08562 33.1728 4.28533C33.1026 3.5201 32.5223 2.20035 31.709 2.08945C30.8475 1.97115 29.9197 3.45725 29.7275 4.16704C28.2635 8.20022 27.5316 11.6456 27.2728 16.6954H27.2765ZM56.9838 37.6635C57.3054 37.4159 57.9413 37.1867 58.2001 37.4602C58.5328 37.8151 58.0966 38.3363 57.9191 38.5582" fill="black"/>
<path d="M150.486 17.3795C148.183 17.3683 148.109 17.2871 148.127 14.8065C148.142 12.6735 148.268 12.6994 150.664 12.5478C152.69 12.4221 152.996 13.3869 152.914 15.0727C152.804 17.3573 152.852 17.3906 150.49 17.3832L150.486 17.3795Z" fill="black"/>
</g>
</svg>
