<svg width="119" height="86" viewBox="0 0 119 86" fill="none" xmlns="http://www.w3.org/2000/svg">
<g opacity="0.7">
<path d="M27.5901 52.2037C27.5901 44.1878 33.9254 37.8526 41.9357 37.8582C49.8935 37.8664 56.3007 44.304 56.2647 52.259C56.2316 60.1477 49.8438 66.519 41.9468 66.5383C33.9668 66.5576 27.59 60.192 27.5873 52.201L27.5901 52.2037ZM41.85 62.1876C47.4556 62.2125 51.8809 57.8811 51.9252 52.3254C51.9694 46.6589 47.6297 42.2392 41.9716 42.1867C36.4103 42.1369 31.9269 46.5318 31.8938 52.0656C31.8634 57.7568 36.1947 62.1628 41.8472 62.1876H41.85Z" fill="black"/>
<path d="M78.6787 37.8609C86.6668 37.8747 92.9971 44.2515 92.9746 52.259C92.9521 60.1754 86.5785 66.5439 78.6842 66.5356C70.7043 66.5273 64.3138 60.1533 64.3082 52.1927C64.3027 44.2266 70.7015 37.8443 78.6787 37.8582V37.8609ZM88.66 52.1624C88.6401 46.5789 84.2539 42.1867 78.6926 42.184C73.029 42.1812 68.6312 46.5761 68.6534 52.2231C68.6755 57.8508 73.0123 62.1877 78.6152 62.1904C84.3064 62.1932 88.6791 57.8287 88.6574 52.1596L88.66 52.1624Z" fill="black"/>
<path d="M27.3004 15.2086C27.2064 7.27019 33.5832 0.741412 41.5023 0.669546C49.3551 0.59768 55.9032 6.98272 55.9916 14.7968C56.0828 22.6993 49.7724 29.1922 41.9086 29.2917C33.8513 29.394 27.3944 23.1664 27.2976 15.2059L27.3004 15.2086ZM41.5382 24.9437C47.094 25.0101 51.5856 20.7147 51.6465 15.2777C51.71 9.60304 47.3538 5.06169 41.8035 5.0147C36.1233 4.96771 31.6842 9.29631 31.6206 14.9405C31.5599 20.4991 35.8994 24.8747 41.5382 24.941V24.9437Z" fill="black"/>
<path d="M63.7227 15.0231C63.7477 7.04046 70.1382 0.669239 78.0987 0.685823C86.0236 0.702408 92.4033 7.13721 92.4059 15.1199C92.4111 22.9008 85.9101 29.2997 78.0048 29.2942C70.1023 29.2886 63.6979 22.8898 63.7227 15.0231ZM77.9965 24.9435C83.638 24.9518 88.0576 20.6287 88.0662 15.0923C88.074 9.43969 83.6794 5.01991 78.038 5.01439C72.4518 5.00886 67.9988 9.50599 68.032 15.1227C68.0651 20.6038 72.4573 24.9351 77.9965 24.9407V24.9435Z" fill="black"/>
<path d="M105.153 49.9502C103.492 47.2553 103.157 44.5244 104.675 41.7851C106.037 39.3223 108.18 37.9458 111.041 37.8684C112.876 37.8186 114.717 37.838 116.555 37.8628C118.028 37.885 118.89 38.6921 118.894 40.1681C118.915 48.1619 118.915 56.1584 118.894 64.1522C118.89 65.6917 118.031 66.5127 116.472 66.5348C114.313 66.5624 112.151 66.5624 109.993 66.5348C106.211 66.4906 102.878 64.2323 101.607 60.885C100.246 57.3083 101.203 53.4496 104.1 50.8458C104.407 50.5694 104.725 50.3096 105.15 49.9474L105.153 49.9502ZM114.493 53.0212C112.677 53.0212 111.027 52.9382 109.388 53.0433C107.325 53.1732 105.614 54.9311 105.394 56.9572C105.139 59.2901 106.248 61.4267 108.409 61.8828C110.368 62.2974 112.445 62.1703 114.496 62.2864V53.0239L114.493 53.0212ZM114.564 48.6069V45.3674C114.564 41.8791 114.307 41.6663 110.756 42.2356C109.208 42.4845 108.069 43.8084 108.039 45.4033C108.008 46.9291 109.191 48.4273 110.731 48.5848C111.942 48.7092 113.177 48.6096 114.564 48.6096V48.6069Z" fill="black"/>
<path d="M15.1986 49.2211C15.1986 47.0375 15.1986 44.8539 15.1986 42.673C15.1986 41.7525 15.1377 40.8266 15.2234 39.9145C15.334 38.7148 16.0416 37.9795 17.2633 37.8718C18.3303 37.7778 19.2784 38.5932 19.4884 39.7182C19.5382 39.9863 19.5299 40.2655 19.5299 40.5419C19.5299 48.3145 19.541 56.0843 19.5299 63.857C19.5271 65.9826 17.9073 67.2319 16.3844 66.2009C15.7817 65.7918 15.3036 64.8189 15.2483 64.067C15.0963 62.0078 15.0631 59.9209 15.24 57.8672C15.4031 55.9959 14.6125 54.8266 12.9984 53.8206C12.6556 54.2655 12.2935 54.7161 11.9508 55.1805C9.40783 58.6163 6.8676 62.0548 4.33293 65.4961C3.7276 66.317 2.88179 66.8698 1.97516 66.4137C1.29244 66.071 0.576535 65.286 0.407926 64.5728C0.264194 63.9675 0.758966 63.0913 1.19016 62.4915C3.6889 59.0254 6.25397 55.6061 8.79142 52.1676C9.16731 51.6563 9.5239 51.1311 9.99101 50.4622C7.36237 47.875 4.78348 45.3348 2.20458 42.7918C1.77892 42.3717 1.34219 41.9626 0.955219 41.5093C0.0513589 40.4562 0.0928199 39.3284 1.02984 38.4495C1.9033 37.6285 3.0421 37.5981 3.98465 38.5158C6.90906 41.3766 9.80311 44.2679 12.6832 47.1729C13.4129 47.9082 14.0542 48.7291 14.737 49.5113C14.8917 49.4146 15.0438 49.3207 15.1986 49.2239V49.2211Z" fill="black"/>
<path d="M104.683 12.472C105.493 11.488 106.242 10.4404 107.126 9.52824C109.62 6.95487 112.146 4.41191 114.719 1.92146C115.28 1.37693 116.096 0.779891 116.792 0.782655C117.453 0.782655 118.321 1.40181 118.719 1.99886C119.263 2.81426 118.971 3.75958 118.238 4.49206C115.767 6.95487 113.299 9.42593 110.833 11.897C110.352 12.378 109.896 12.8838 109.34 13.4726C111.475 16.3334 113.556 19.1251 115.637 21.9197C116.572 23.1718 117.522 24.4128 118.426 25.6843C119.249 26.8452 119.095 28.1057 118.097 28.8603C117.091 29.6176 115.864 29.4242 114.982 28.255C112.325 24.7363 109.705 21.1899 107.066 17.6574C106.825 17.334 106.565 17.0272 106.256 16.6403C105.009 17.6381 103.87 18.4701 104.011 20.322C104.174 22.4697 104.061 24.6395 104.042 26.7982C104.028 28.3434 103.187 29.2915 101.894 29.2832C100.656 29.2749 99.7877 28.3959 99.7825 26.8978C99.7461 18.9483 99.7436 10.9987 99.76 3.04644C99.7626 1.68651 100.774 0.666563 101.938 0.674855C103.149 0.683147 104.02 1.62017 104.036 3.07685C104.069 6.05378 104.048 9.02798 104.048 12.0049C104.26 12.1596 104.47 12.3145 104.683 12.4692V12.472Z" fill="black"/>
<path d="M0.228468 15.1394C0.330741 9.28789 2.95939 4.8653 8.14485 2.24218C13.2916 -0.364352 18.3747 0.174645 23.0985 3.54407C24.4364 4.50044 24.7238 5.76639 23.925 6.84163C23.1151 7.9362 21.9321 7.98872 20.5307 6.99089C17.1281 4.56955 12.7083 4.34565 9.37758 6.42978C5.72071 8.7157 3.85495 12.6545 4.72841 16.9609C5.56039 21.0601 8.1863 23.7109 12.255 24.7032C15.1462 25.4107 17.8966 24.8524 20.4063 23.1663C20.9508 22.8015 21.7414 22.3426 22.25 22.4947C22.9741 22.7131 23.7841 23.3322 24.1185 23.9983C24.605 24.9686 23.9969 25.8199 23.1427 26.4528C17.0729 30.9583 8.70041 30.0406 3.7278 24.3328C1.43361 21.6958 0.217411 18.6636 0.228468 15.1394Z" fill="black"/>
<path d="M91.781 83.0857H101.806C102.768 83.0857 103.548 82.3062 103.548 81.3443V80.0258C103.548 79.0639 102.768 78.2844 101.806 78.2844H91.7697L91.7005 78.0551C91.2608 76.7919 90.0586 75.8853 88.6461 75.8853H30.5147C29.0608 75.8853 27.8335 76.8416 27.4245 78.1601L27.3885 78.2844H17.4239C16.4621 78.2844 15.6826 79.0639 15.6826 80.0258V81.3443C15.6826 82.3062 16.4621 83.0857 17.4239 83.0857H27.3775L27.4549 83.3483C27.8916 84.6197 29.0967 85.5319 30.5147 85.5319H88.6435C90.0638 85.5319 91.2695 84.617 91.7057 83.3428L91.781 83.0857Z" fill="black"/>
</g>
</svg>
