<svg width="213" height="53" viewBox="0 0 213 53" fill="none" xmlns="http://www.w3.org/2000/svg">
<g opacity="0.7">
<path d="M65.6112 18.3674C64.8155 17.701 64.2519 16.7992 64.0015 15.792L62.394 17.6143C61.8899 18.3439 61.5937 19.1969 61.5374 20.082C61.5626 20.2629 61.5982 20.4421 61.6445 20.6188C61.8586 20.9407 61.8586 21.0471 62.0728 21.1556C60.678 23.6233 58.6393 26.1987 58.5315 29.311V29.633C54.9903 29.7401 50.0542 29.7401 48.1233 29.633C48.4045 28.799 48.5847 27.9343 48.6601 27.0575C48.6601 25.0188 47.6943 23.7311 46.7284 22.1214C44.6898 19.546 41.4705 18.688 38.037 19.224C34.6035 19.6523 32.028 20.8337 30.5254 22.6575C31.2764 10.7467 31.382 11.1756 31.7062 9.56677C31.8989 8.08379 32.185 6.61442 32.5627 5.16745L29.0207 0.125732C29.0261 0.806826 28.9903 1.48762 28.9136 2.16441C28.4853 9.67597 27.8429 22.4448 27.8429 29.7414C22.1559 30.0634 5.09415 30.3839 4.02128 29.4195C3.37884 27.3809 10.2451 18.5816 15.7172 17.8306C15.2889 17.2938 13.0347 14.9333 10.996 15.899C8.20356 16.1153 0.263723 24.4834 0.799803 28.5615C1.12174 30.2782 2.83848 33.3905 5.62881 33.7124C10.4578 34.2492 22.5828 33.8195 24.8363 33.6054C25.9423 33.3505 26.9719 32.8367 27.8408 32.1063V32.5346C27.9479 33.5004 29.1256 34.8952 29.8794 35.6462L30.3077 35.5391C30.3077 33.9295 30.4148 31.4618 30.4148 29.1011C31.1657 25.5599 34.1702 23.7361 38.4624 23.3071C40.716 23.093 45.1153 23.8438 45.974 25.5606L44.365 29.8493C44.9228 31.25 45.8495 32.4735 47.0468 33.3898C49.0855 33.3898 54.6654 33.604 57.67 33.3898C58.3395 33.2841 58.9487 32.9413 59.3867 32.424C59.763 32.9395 60.2451 33.3688 60.8007 33.6831C61.3562 33.9973 61.9724 34.1894 62.6082 34.2464C64.9687 34.4605 67.0074 33.7096 69.2609 32.6367C71.0848 29.9542 72.9093 26.9497 71.5145 23.7303C69.9034 20.9429 68.4015 20.5131 65.6112 18.3674ZM62.2848 29.4195C59.6022 28.1347 62.0706 23.7325 63.3555 22.0157C65.7161 23.3007 69.5793 25.5571 69.9013 28.5615C68.771 29.2509 67.5035 29.6849 66.1879 29.8331C64.8723 29.9813 63.5402 29.8401 62.2848 29.4195Z" fill="black"/>
<path d="M130.532 18.368C129.736 17.7016 129.172 16.7998 128.922 15.7926L127.312 17.6164C126.808 18.3459 126.512 19.199 126.455 20.084C126.48 20.2649 126.517 20.4442 126.563 20.6208C126.777 20.9428 126.777 21.0491 126.991 21.1576C125.596 23.6253 123.558 26.2008 123.45 29.313C123.373 30.0897 123.521 30.8722 123.878 31.5666L123.774 31.3524C119.267 31.6743 111.112 30.6015 110.79 25.4505C110.576 23.8408 112.185 17.9389 118.409 20.7293C118.623 18.6906 117.658 17.2958 116.263 16.8661C113.043 16.5442 110.576 17.2944 108.752 21.2654C107.034 17.1881 103.493 16.6513 101.24 16.8661C100.536 17.2202 99.9543 17.7781 99.5717 18.4671C99.189 19.1562 99.0228 19.9444 99.0942 20.7293C106.391 17.9397 106.82 23.8408 106.391 25.4505C105.315 30.4958 98.3402 31.6736 93.7264 31.3524C93.6194 27.1672 93.4045 22.768 93.4045 17.8319C93.4394 16.936 93.4021 16.0387 93.2934 15.1487L89.5382 19.8698C89.7238 20.3563 89.8673 20.8578 89.9662 21.3689C89.9662 25.2321 90.3951 26.4121 90.2881 27.1629C88.8937 28.8797 86.318 29.5236 84.2798 29.5236C77.3048 29.5236 76.6609 23.5146 79.5583 18.7934L79.2364 18.6864C75.8029 19.9713 74.6223 24.9102 75.6952 28.7726C76.6616 32.209 79.5619 34.1413 83.2105 34.2491C87.0736 34.142 88.8969 32.75 90.614 29.742C90.9359 34.2491 91.0421 38.6484 91.0421 44.8751C89.543 47.1285 87.8227 48.5234 83.4237 48.5234C76.127 48.5234 73.7664 44.5531 75.5902 36.8274L75.1619 36.7203C70.5478 44.2319 72.5864 52.6014 82.6738 52.6014C89.0039 52.6014 93.8334 47.2364 93.8334 40.7977C93.8334 37.9002 93.7264 35.0036 93.6194 31.9984L94.2614 32.855C98.0167 33.9258 103.812 35.0008 108.426 29.8505C113.04 35.0014 119.156 33.9279 122.805 32.855L123.661 31.6743C123.979 32.4243 124.497 33.0717 125.161 33.5451C125.823 34.0186 126.604 34.2995 127.417 34.3569C129.777 34.571 131.816 33.82 134.07 32.7472C135.893 30.0647 137.718 27.0602 136.323 23.8408C134.823 20.9428 133.321 20.5137 130.532 18.368ZM127.205 29.4201C124.522 28.1352 126.991 23.7331 128.276 22.0163C130.636 23.3012 134.5 25.5576 134.822 28.5621C133.691 29.2515 132.424 29.6854 131.108 29.8336C129.793 29.9818 128.46 29.8407 127.205 29.4201Z" fill="black"/>
<path d="M212.51 23.3039H212.082C212.082 23.8407 211.868 25.6645 209.507 27.1671C206.825 28.8838 185.793 34.6786 185.471 26.7388C185.257 22.5537 185.793 19.1202 185.685 14.828L182.144 18.2615V19.7605C178.496 20.8312 173.345 22.765 170.877 25.1256C169.696 26.5204 169.696 28.2371 169.806 29.8468C166.48 29.9539 162.403 30.0609 160.793 29.9539C161.261 28.9212 161.62 27.8421 161.864 26.7345C161.542 24.1591 160.579 23.1933 159.61 21.4765C158.654 20.3639 157.469 19.4712 156.135 18.86C154.801 18.2487 153.351 17.9332 151.884 17.9353C149.161 17.9109 146.498 18.7361 144.266 20.2958V16.2214L140.402 18.582C140.831 19.3329 140.831 19.7626 140.831 22.0155V29.6348C140.951 30.4885 141.022 31.3484 141.045 32.2102L145.122 33.927L145.336 33.8199C144.585 31.5664 143.727 28.9909 144.48 25.4503C146.196 20.4072 156.283 20.7292 158.536 24.3796C158.643 25.6645 157.679 27.3842 156.927 29.5305L159.394 32.964C161.433 33.1782 167.764 33.5008 170.662 32.964C171.203 32.7703 171.684 32.4371 172.056 31.9982C175.061 33.1789 179.997 33.1789 181.07 31.8912C181.644 31.0584 182.113 30.1572 182.464 29.2086C183.859 31.3544 185.147 32.857 188.688 33.6079C197.058 35.3247 210.471 32.857 212.509 28.7789C213.163 27.0124 213.164 25.0706 212.51 23.3039ZM182.143 28.5619V28.7761C178.066 29.527 173.452 29.098 173.129 28.0251C172.593 26.4155 180.212 22.6601 182.143 22.3381C182.144 24.3768 182.036 26.7374 182.144 28.5612L182.143 28.5619Z" fill="black"/>
<path d="M55.4988 19.3076L53.2985 17.1074L51.0983 19.3076L53.2985 21.5078L55.4988 19.3076Z" fill="black"/>
<path d="M170.641 19.2941L168.44 17.0939L166.24 19.2941L168.44 21.4943L170.641 19.2941Z" fill="black"/>
</g>
</svg>
