<svg width="237" height="89" viewBox="0 0 237 89" fill="none" xmlns="http://www.w3.org/2000/svg">
<g opacity="0.7">
<path d="M128.852 69.9835C127.051 71.431 125.109 72.5256 122.707 72.5608C118.259 72.6312 115.151 69.8419 114.833 65.3926C114.516 61.0139 115.928 57.059 118.011 53.2806C120.483 48.8666 123.591 45.0175 127.969 42.3338C129.664 41.2745 131.536 40.5683 133.549 40.7448C136.691 41.0273 138.28 43.1107 139.022 46.1475C139.587 45.3001 140.046 44.4879 140.611 43.7816C141.811 42.2279 143.295 41.1686 145.414 41.451C145.766 41.4864 146.19 41.7336 146.331 42.016C146.438 42.2279 146.331 42.7929 146.084 42.9342C143.965 44.6292 143.153 47.0656 142.376 49.4669C140.717 54.6224 139.127 59.8486 137.574 65.0395C137.362 65.781 137.327 66.6285 137.362 67.4054C137.398 68.8885 138.563 69.736 139.799 68.9591C141.07 68.1823 142.058 66.911 143.153 65.8164C143.683 65.2514 143.86 63.9801 144.954 64.5805C145.237 64.7217 145.096 66.0282 144.813 66.6638C143.507 69.5947 141.6 71.9607 138.21 72.4552C134.502 73.0201 132.418 71.0069 132.595 67.2642C132.595 66.8757 132.63 66.4873 132.665 66.1341C132.772 66.2754 130.264 68.7825 128.887 69.9123L128.852 69.9835ZM119.565 63.4505C119.565 64.0155 119.601 64.6157 119.671 65.1807C119.989 68.0057 122.284 69.8066 125.038 69.171C126.063 68.9238 127.122 68.3235 127.934 67.6173C131.888 64.2273 134.079 59.7426 135.668 54.9049C136.55 52.2212 137.15 49.5022 136.762 46.6419C136.373 43.817 134.396 42.5104 131.712 43.4638C130.83 43.7816 129.982 44.2054 129.276 44.7704C123.414 49.6081 120.413 55.9643 119.565 63.4151V63.4505Z" fill="black"/>
<path d="M189.695 0.77149C191.814 0.594982 193.756 1.19526 195.627 1.72496C197.004 2.11335 197.676 3.45521 197.287 4.44396C196.792 5.71517 195.557 5.78582 194.498 5.53866C193.473 5.29149 192.484 4.83236 191.461 4.51462C186.164 2.89022 181.821 4.65585 178.078 8.3636C172.957 13.4485 169.39 19.5928 166.919 26.2668C162.47 38.2023 158.303 50.2084 154.065 62.2497C153.5 63.8035 153.289 65.5338 153.182 67.2288C153.077 69.1002 154.454 69.9123 156.008 68.8885C157.173 68.1116 158.02 66.8403 159.009 65.781C159.504 65.2513 159.751 64.0506 160.739 64.651C161.057 64.8275 160.951 66.1341 160.669 66.7343C159.221 69.7359 157.173 72.1015 153.607 72.6312C150.676 73.0553 148.38 71.431 148.486 68.4647C148.592 65.9575 149.051 63.4151 149.793 61.0138C152.265 53.2452 154.877 45.5118 157.632 37.8492C160.527 29.798 163.988 21.9587 168.825 14.861C172.286 9.77612 178.572 1.72496 189.66 0.736206L189.695 0.77149Z" fill="black"/>
<path d="M181.255 12.8485C181.149 13.2722 181.078 13.5547 180.973 13.8372C179.913 16.7328 181.185 19.0987 184.116 20.1227C187.399 21.2527 190.754 20.5112 194.073 20.5112C196.898 20.5112 199.899 20.2993 202.69 20.6877C206.821 21.2527 210.034 23.7246 212.577 26.938C215.437 30.6104 217.168 34.8125 219.039 39.0147C220.946 43.2874 224.865 52.6451 225.183 53.2101C227.019 51.4445 228.926 50.5264 231.292 50.1027C235.07 49.467 237.613 52.0095 236.871 55.6114C236.447 57.5888 234.576 58.8247 232.281 58.507C230.869 58.3304 229.455 58.0478 228.149 57.5535C226.843 57.0944 225.819 56.3176 224.37 55.576C223.488 57.8713 221.864 62.1441 220.875 64.4393C218.827 69.4183 217.591 72.7729 215.225 77.5403C212.718 82.59 208.869 86.0146 203.113 86.8268C201.63 87.0389 198.522 86.5443 198.487 86.3684C199.299 86.0859 200.076 85.7322 200.888 85.4849C206.644 83.6495 210.529 79.6239 213.353 74.5741C216.496 68.9593 219.357 63.1328 222.358 57.4123C222.782 56.6001 223.418 55.576 223.735 55.011C221.299 49.8908 218.897 45.0884 216.391 40.1447C214.625 36.6488 212.753 33.1882 210.564 29.9748C207.562 25.5608 203.078 23.7599 197.852 23.548C194.073 23.4068 190.295 23.1243 186.516 22.7005C184.327 22.4533 182.279 21.6059 180.831 19.805C179.101 17.6862 179.242 14.5081 181.255 12.8838V12.8485ZM225.712 53.8104C227.726 55.576 229.809 56.4588 232.21 56.8473C234.258 57.2004 235.565 56.3176 235.742 54.5873C235.917 52.6805 234.647 51.1973 232.74 51.0913C229.985 50.9148 227.902 51.9389 225.748 53.8104H225.712Z" fill="black"/>
<path d="M141.034 87.5685C124.014 87.8509 106.994 88.3454 89.9732 88.3093C78.4262 88.3093 56.5683 87.286 54.4849 86.5794C57.2392 85.7673 93.1515 84.2134 112.22 84.9903C121.013 85.2376 129.664 85.2376 138.422 85.4144C152.088 85.6617 179.031 85.9793 181.397 86.5442C179.206 87.0739 153.747 87.3564 141.034 87.5685Z" fill="black"/>
<path d="M51.3772 71.784C47.9872 70.5125 46.3982 66.3461 47.8813 63.2739C48.4463 62.1439 49.2938 61.4024 50.6003 61.4377C51.7657 61.4377 52.7897 62.0379 53.0369 63.1679C53.2487 64.0507 53.0016 65.0748 52.7897 65.993C52.6838 66.558 52.2953 67.0523 52.0835 67.582C51.695 68.5354 51.9422 69.3122 52.8603 69.8772C55.1556 71.2895 59.5696 70.619 61.2995 68.6413C63.1711 66.452 63.0655 63.062 60.9467 60.6961C59.2168 58.7892 57.4508 56.9178 55.6499 55.0462C51.3772 50.5616 53.0721 44.5586 58.0865 42.1573C61.4764 40.533 65.0075 39.7207 68.6098 41.557C71.1167 42.8282 72.0696 46.0769 70.7638 48.4782C69.9156 50.0319 68.1153 50.5969 66.667 49.7494C65.2899 48.9373 64.9371 47.3129 65.7844 45.7238C66.1373 45.0529 66.3845 44.841 66.879 44.0995C66.4197 42.8282 64.7954 42.5104 63.9129 42.5811C62.5358 42.7223 61.0884 43.2167 59.9225 43.9229C57.3096 45.4767 56.9212 48.4076 58.8986 51.1266C60.1697 52.8569 61.794 54.4106 63.2424 56.035C63.8777 56.7765 64.5482 57.518 65.1843 58.2596C69.5276 63.3092 66.1021 69.7713 61.8292 71.6432C58.5455 73.0907 53.1075 72.561 51.4478 71.9257L51.3772 71.784Z" fill="black"/>
<path d="M42.1258 86.7562C38.7358 87.1804 35.4165 86.8266 32.3443 85.2375C28.2481 83.1548 25.3878 79.8349 23.3751 75.8093C20.3029 69.7359 17.4073 63.5563 14.4059 57.4473C14.2646 57.1647 14.1233 56.9176 14.0881 56.8823C12.0046 57.5885 10.0625 58.3654 8.04968 58.8244C6.9197 59.107 5.6485 59.001 4.48315 58.8244C2.04659 58.4007 0.775391 56.8116 0.775391 54.4457C0.775391 51.7267 2.15253 49.7846 4.51852 49.3256C7.02564 48.8311 9.25032 49.7492 11.369 50.9499C11.934 51.2677 12.4637 51.6914 13.2052 52.1505C13.5583 51.4796 13.9115 50.8086 14.2293 50.173C17.2661 43.9227 20.0911 37.5666 23.4104 31.493C26.5885 25.7371 31.5321 22.2059 38.3827 22.0293C38.8771 22.0293 39.3714 22.0293 39.8658 22.0293C39.8658 22.1352 39.8658 22.2766 39.8658 22.3824C39.1948 22.5237 38.524 22.7002 37.8531 22.8415C31.8853 24.148 27.9303 27.9264 25.4585 33.2939C22.8454 38.9085 20.4442 44.5937 17.937 50.2789C17.5133 51.2324 17.1954 52.2211 16.5952 53.0333C15.6064 54.3752 15.7477 55.5404 16.4539 57.0235C19.3848 63.309 21.9979 69.7712 24.9994 76.0214C27.5419 81.3184 31.5675 85.0967 37.6058 86.2265C39.089 86.509 40.6073 86.6155 42.0904 86.7914L42.1258 86.7562ZM11.6515 53.9161C10.7334 53.3864 10.2037 52.892 9.42682 52.6448C8.15562 52.2211 6.77848 51.7974 5.4719 51.762C4.13004 51.762 3.45911 52.8567 3.49439 54.2692C3.49439 55.6817 4.48315 55.9642 5.54256 56.0348C7.76714 56.1407 9.56814 55.2933 11.6515 53.9161Z" fill="black"/>
<path d="M101.979 46.6063C103.921 44.2404 105.899 42.2276 108.583 41.2036C110.913 40.3208 113.244 39.9323 115.433 41.6626C118.047 43.7107 117.835 48.3366 115.08 50.1375C113.314 51.3028 111.196 50.8084 110.243 49.0429C109.324 47.3479 109.925 45.4411 111.761 44.5229C112.22 44.311 112.891 43.8873 113.279 43.5342C112.926 42.8633 112.079 42.5807 111.549 42.5101C109.96 42.3336 108.618 43.181 107.417 44.1345C103.921 46.8888 101.555 50.526 99.9311 54.5515C98.0595 59.1774 96.4704 63.9092 94.9525 68.641C94.3163 70.6187 93.2569 71.9253 91.2446 72.3838C90.7501 72.4902 89.9731 72.5958 89.7611 72.3134C89.4786 71.9605 89.4434 71.2188 89.6203 70.7594C91.9864 63.5208 94.4228 56.3172 96.8241 49.0782C97.2473 47.807 97.5298 46.4651 97.5659 45.1585C97.6011 43.5342 96.4704 42.9692 95.1998 44.0285C93.9635 45.0879 92.9041 46.3592 91.8095 47.5951C91.3502 48.1247 90.927 48.725 90.15 48.1953C89.3027 47.6304 89.7972 46.9594 90.2556 46.5004C91.7743 44.8407 93.2569 43.1104 95.0229 41.6626C95.9055 40.921 97.2825 40.5327 98.4836 40.4973C100.567 40.3914 101.909 42.0864 102.05 44.5229C102.05 45.0879 102.05 45.6882 102.05 46.571L101.979 46.6063Z" fill="black"/>
<path d="M54.4496 21.8882C60.3115 21.3938 99.896 20.4756 119.883 20.2991C129.522 20.2285 149.474 21.1819 152.299 21.8529C146.155 23.0888 125.533 24.0069 114.021 23.7243C101.803 23.4419 89.5852 23.1947 77.402 22.9122C70.1991 22.7357 59.3929 22.4531 54.4496 21.8882Z" fill="black"/>
<path d="M173.946 51.6208C172.286 56.0348 170.485 60.4135 168.79 64.8276C168.473 65.675 168.401 66.6638 168.401 67.5819C168.401 68.9591 169.39 69.4534 170.627 68.7825C171.227 68.4294 171.686 67.829 172.321 67.5113C172.781 67.264 173.593 66.6285 174.122 67.1581C174.652 67.6878 174.016 68.5353 173.734 68.8178C172.462 69.9122 171.191 71.1133 169.708 71.819C166.319 73.3729 162.963 70.8308 163.74 67.1935C164.482 63.7329 165.647 60.3429 166.812 56.9883C168.684 51.7621 170.732 46.5712 172.709 41.3804C172.921 40.8507 173.416 40.1798 173.698 39.7207C174.298 40.0032 175.464 41.4157 175.747 41.9454C176.841 44.6997 174.828 49.3609 173.946 51.6915V51.6208Z" fill="black"/>
<path d="M84.9594 44.3819C85.1002 47.348 83.4055 49.9611 82.3813 52.6448C80.8634 56.6704 79.203 60.6607 77.65 64.7216C77.3315 65.5691 77.1907 66.5578 77.2259 67.4759C77.2259 68.9237 78.2501 69.4534 79.4855 68.7471C80.1217 68.394 80.6162 67.7231 81.2515 67.37C81.6756 67.1581 82.4516 66.6637 82.8758 67.1581C83.2999 67.6525 82.8758 68.4646 82.6285 68.7119C81.2867 69.8418 79.9448 71.1134 78.3557 71.8543C75.3191 73.2313 72.5289 71.2542 72.4937 67.935C72.4585 64.6509 73.8004 61.7554 74.895 58.8244C77.0842 52.8567 79.3799 46.889 81.6395 40.9566C82.134 39.6854 82.6989 39.5088 83.4407 40.6387C84.1824 41.7334 84.8529 42.8987 84.9242 44.4524L84.9594 44.3819Z" fill="black"/>
</g>
</svg>
